<svg width="19" height="19" viewBox="0 0 19 19" fill="none" xmlns="http://www.w3.org/2000/svg">
<g id="update_24px">
<path id="icon/action/update_24px" fill-rule="evenodd" clip-rule="evenodd" d="M16.6238 3.33168V7.5196C16.6238 7.74127 16.4496 7.91543 16.2279 7.91543H12.04C11.6838 7.91543 11.5096 7.48793 11.7629 7.2346L13.4175 5.58002C12.4121 4.58252 11.0267 3.9571 9.49878 3.9571C6.41919 3.9571 3.90961 6.49043 3.95711 9.57793C4.00461 12.5229 6.48252 15.0009 9.41961 15.0404C12.2775 15.08 14.6604 12.9425 15.0009 10.1796C15.0484 9.79168 15.3809 9.49877 15.7767 9.49877C16.2517 9.49877 16.6238 9.91043 16.5684 10.3854C16.1329 13.9004 13.1325 16.6238 9.49878 16.6238C5.29503 16.6238 1.94627 12.9821 2.42127 8.69127C2.78544 5.37418 5.51669 2.70627 8.83378 2.40543C11.0663 2.20752 13.1088 3.03085 14.5417 4.46377L15.9509 3.0546C16.1963 2.80127 16.6238 2.97543 16.6238 3.33168ZM8.70711 9.83918V6.92585C8.70711 6.60127 8.97628 6.3321 9.30086 6.3321C9.62544 6.3321 9.89461 6.60127 9.90253 6.91794V9.6096L12.1746 10.9634C12.4596 11.1296 12.5467 11.4938 12.3804 11.7788C12.2142 12.0559 11.85 12.1509 11.565 11.9846L9.09503 10.52C8.85753 10.3775 8.70711 10.1163 8.70711 9.83918Z" fill="black" fill-opacity="0.54"/>
</g>
</svg>
